<?xml version="1.0" encoding="utf-8"?>
<!-- Generator: Adobe Illustrator 26.0.2, SVG Export Plug-In . SVG Version: 6.00 Build 0)  -->
<svg version="1.1" id="Layer_1" xmlns="http://www.w3.org/2000/svg" xmlns:xlink="http://www.w3.org/1999/xlink" x="0px" y="0px"
	 viewBox="0 0 55 10" style="enable-background:new 0 0 55 10;" xml:space="preserve">
<style type="text/css">
	.st0{fill:#F2C054;}
</style>
<path class="st0" d="M10,3.9c0-0.1-0.1-0.2-0.3-0.2L6.7,3.2L5.3,0.4C5.2,0.3,5.1,0.2,5,0.2c-0.1,0-0.2,0.1-0.3,0.2L3.3,3.2L0.3,3.6
	C0.2,3.7,0.1,3.7,0,3.9C0,4,0,4.1,0.1,4.2l2.2,2.2L1.8,9.4c0,0.1,0,0.2,0.1,0.3c0.1,0.1,0.2,0.1,0.3,0L5,8.3l2.8,1.4
	c0,0,0.1,0,0.1,0c0.1,0,0.1,0,0.2-0.1c0.1-0.1,0.1-0.2,0.1-0.3L7.7,6.3l2.2-2.2C10,4.1,10,4,10,3.9z"/>
<path class="st0" d="M25,3.9c0-0.1-0.1-0.2-0.3-0.2l-3.1-0.4l-1.4-2.8c-0.1-0.1-0.2-0.2-0.3-0.2c-0.1,0-0.2,0.1-0.3,0.2l-1.4,2.8
	l-3.1,0.4c-0.1,0-0.2,0.1-0.3,0.2c0,0.1,0,0.2,0.1,0.3l2.2,2.2l-0.5,3.1c0,0.1,0,0.2,0.1,0.3c0.1,0.1,0.2,0.1,0.3,0L20,8.3l2.8,1.4
	c0,0,0.1,0,0.1,0c0.1,0,0.1,0,0.2-0.1c0.1-0.1,0.1-0.2,0.1-0.3l-0.5-3.1l2.2-2.2C25,4.1,25,4,25,3.9z"/>
<path class="st0" d="M40,3.9c0-0.1-0.1-0.2-0.3-0.2l-3.1-0.4l-1.4-2.8c-0.1-0.1-0.2-0.2-0.3-0.2c-0.1,0-0.2,0.1-0.3,0.2l-1.4,2.8
	l-3.1,0.4c-0.1,0-0.2,0.1-0.3,0.2c0,0.1,0,0.2,0.1,0.3l2.2,2.2l-0.5,3.1c0,0.1,0,0.2,0.1,0.3c0.1,0.1,0.2,0.1,0.3,0L35,8.3l2.8,1.4
	c0,0,0.1,0,0.1,0c0.1,0,0.1,0,0.2-0.1c0.1-0.1,0.1-0.2,0.1-0.3l-0.5-3.1l2.2-2.2C40,4.1,40,4,40,3.9z"/>
<path class="st0" d="M55,3.9c0-0.1-0.1-0.2-0.3-0.2l-3.1-0.4l-1.4-2.8c-0.1-0.1-0.2-0.2-0.3-0.2c-0.1,0-0.2,0.1-0.3,0.2l-1.4,2.8
	l-3.1,0.4c-0.1,0-0.2,0.1-0.3,0.2c0,0.1,0,0.2,0.1,0.3l2.2,2.2l-0.5,3.1c0,0.1,0,0.2,0.1,0.3c0.1,0.1,0.2,0.1,0.3,0L50,8.3l2.8,1.4
	c0,0,0.1,0,0.1,0c0.1,0,0.1,0,0.2-0.1c0.1-0.1,0.1-0.2,0.1-0.3l-0.5-3.1l2.2-2.2C55,4.1,55,4,55,3.9z"/>
</svg>
