<svg width="14" height="12" viewBox="0 0 14 12" fill="none" xmlns="http://www.w3.org/2000/svg">
<path d="M11.5862 2.06897H8.27586V0.827586C8.27586 0.370474 7.90539 0 7.44828 0H4.96552C4.50841 0 4.13793 0.370474 4.13793 0.827586V2.06897H1.65517C0.740981 2.06897 0 2.80995 0 3.72414V10.3448C0 11.259 0.740981 12 1.65517 12H11.5862C12.5004 12 13.2414 11.259 13.2414 10.3448V3.72414C13.2414 2.80995 12.5004 2.06897 11.5862 2.06897ZM4.96552 0.827586H7.44828V2.06897H4.96552V0.827586ZM2.48276 11.1724H1.65517C1.1989 11.1724 0.827586 10.8011 0.827586 10.3448V3.72414C0.827586 3.26787 1.1989 2.89655 1.65517 2.89655H2.48276V11.1724ZM9.93104 11.1724H3.31035V2.89655H9.93104V11.1724ZM12.4138 10.3448C12.4138 10.8011 12.0425 11.1724 11.5862 11.1724H10.7586V2.89655H11.5862C12.0425 2.89655 12.4138 3.26787 12.4138 3.72414V10.3448Z" fill="#F5F5F5"/>
</svg>
