<svg width="15" height="15" viewBox="0 0 15 15" fill="none" xmlns="http://www.w3.org/2000/svg">
<path d="M14.3755 0.994898H12.3429V0.62449C12.3429 0.278571 12.0643 0 11.7184 0C11.3724 0 11.0939 0.278571 11.0939 0.62449V0.994898H3.90612V0.62449C3.90612 0.278571 3.62755 0 3.28163 0C2.93571 0 2.65714 0.278571 2.65714 0.62449V0.994898H0.62449C0.278571 0.994898 0 1.27653 0 1.62245V14.3755C0 14.7214 0.278571 15 0.62449 15H14.3755C14.7214 15 15 14.7214 15 14.3755V1.62245C15 1.27653 14.7214 0.994898 14.3755 0.994898ZM13.751 13.751H1.24898V2.24694H2.65408V2.61735C2.65408 2.96327 2.93265 3.24184 3.27857 3.24184C3.62449 3.24184 3.90306 2.96327 3.90306 2.61735V2.24694H11.0908V2.61735C11.0908 2.96327 11.3694 3.24184 11.7153 3.24184C12.0612 3.24184 12.3398 2.96327 12.3398 2.61735V2.24694H13.7449V13.751H13.751Z" fill="#A59E9E"/>
<path d="M3.82349 5.54382H3.16532C2.8194 5.54382 2.54083 5.82239 2.54083 6.16831C2.54083 6.51423 2.8194 6.7928 3.16532 6.7928H3.82349C4.1694 6.7928 4.44798 6.51423 4.44798 6.16831C4.44798 5.82546 4.1694 5.54382 3.82349 5.54382Z" fill="#A59E9E"/>
<path d="M7.83063 5.54382H7.17246C6.82655 5.54382 6.54797 5.82239 6.54797 6.16831C6.54797 6.51423 6.82655 6.7928 7.17246 6.7928H7.83063C8.17654 6.7928 8.45512 6.51423 8.45512 6.16831C8.45512 5.82546 8.17348 5.54382 7.83063 5.54382Z" fill="#A59E9E"/>
<path d="M11.8347 5.54382H11.1766C10.8306 5.54382 10.5521 5.82239 10.5521 6.16831C10.5521 6.51423 10.8306 6.7928 11.1766 6.7928H11.8347C12.1806 6.7928 12.4592 6.51423 12.4592 6.16831C12.4592 5.82546 12.1806 5.54382 11.8347 5.54382Z" fill="#A59E9E"/>
<path d="M3.82349 8.35718H3.16532C2.8194 8.35718 2.54083 8.63575 2.54083 8.98167C2.54083 9.32759 2.8194 9.60616 3.16532 9.60616H3.82349C4.1694 9.60616 4.44798 9.32759 4.44798 8.98167C4.44798 8.63575 4.1694 8.35718 3.82349 8.35718Z" fill="#A59E9E"/>
<path d="M7.83063 8.35718H7.17246C6.82655 8.35718 6.54797 8.63575 6.54797 8.98167C6.54797 9.32759 6.82655 9.60616 7.17246 9.60616H7.83063C8.17654 9.60616 8.45512 9.32759 8.45512 8.98167C8.45512 8.63575 8.17348 8.35718 7.83063 8.35718Z" fill="#A59E9E"/>
<path d="M11.8347 8.35718H11.1766C10.8306 8.35718 10.5521 8.63575 10.5521 8.98167C10.5521 9.32759 10.8306 9.60616 11.1766 9.60616H11.8347C12.1806 9.60616 12.4592 9.32759 12.4592 8.98167C12.4592 8.63575 12.1806 8.35718 11.8347 8.35718Z" fill="#A59E9E"/>
<path d="M3.82349 11.1704H3.16532C2.8194 11.1704 2.54083 11.449 2.54083 11.7949C2.54083 12.1408 2.8194 12.4194 3.16532 12.4194H3.82349C4.1694 12.4194 4.44798 12.1408 4.44798 11.7949C4.44798 11.449 4.1694 11.1704 3.82349 11.1704Z" fill="#A59E9E"/>
<path d="M7.83063 11.1704H7.17246C6.82655 11.1704 6.54797 11.449 6.54797 11.7949C6.54797 12.1408 6.82655 12.4194 7.17246 12.4194H7.83063C8.17654 12.4194 8.45512 12.1408 8.45512 11.7949C8.45512 11.449 8.17348 11.1704 7.83063 11.1704Z" fill="#A59E9E"/>
<path d="M11.8347 11.1704H11.1766C10.8306 11.1704 10.5521 11.449 10.5521 11.7949C10.5521 12.1408 10.8306 12.4194 11.1766 12.4194H11.8347C12.1806 12.4194 12.4592 12.1408 12.4592 11.7949C12.4592 11.449 12.1806 11.1704 11.8347 11.1704Z" fill="#A59E9E"/>
</svg>
