<svg width="25" height="15" viewBox="0 0 25 15" fill="none" xmlns="http://www.w3.org/2000/svg">
<path d="M15.6714 5.68984C14.5402 5.15303 13.3301 4.88086 12.0746 4.88086C11.805 4.88086 11.5864 5.09951 11.5864 5.36914C11.5864 5.63877 11.805 5.85737 12.0747 5.85737C13.1842 5.85737 14.2535 6.09785 15.2528 6.57207C15.3203 6.60415 15.3916 6.61934 15.4618 6.61934C15.6445 6.61934 15.8197 6.51636 15.9032 6.34028C16.0188 6.09668 15.9151 5.80547 15.6714 5.68984Z" fill="black"/>
<path d="M9.03393 5.45325C6.31684 6.51892 4.33281 8.96585 3.85615 11.839C3.81201 12.1051 3.99189 12.3565 4.25796 12.4006C4.28505 12.4051 4.31191 12.4073 4.33847 12.4073C4.57299 12.4073 4.77993 12.2378 4.81958 11.9989C5.24023 9.46297 6.99174 7.3032 9.39052 6.36238C9.6416 6.2639 9.76528 5.98059 9.66679 5.72952C9.56831 5.47845 9.28496 5.35486 9.03393 5.45325Z" fill="black"/>
<path d="M24.5117 13.4021H23.5909C23.4923 10.5988 22.3395 7.97354 20.3178 5.97285C18.8029 4.47363 16.9367 3.45825 14.9095 3.00493C14.895 1.68833 13.82 0.621582 12.5 0.621582C11.1854 0.621582 10.1139 1.67979 10.091 2.98911C8.04141 3.43423 6.15889 4.45615 4.64038 5.97466C2.64443 7.97061 1.5062 10.5953 1.40898 13.4021H0.488281C0.218604 13.4021 0 13.6207 0 13.8903C0 14.16 0.218604 14.3786 0.488281 14.3786H24.5117C24.7814 14.3786 25 14.16 25 13.8903C25 13.6207 24.7814 13.4021 24.5117 13.4021ZM12.5 1.59815C13.2223 1.59815 13.8211 2.13511 13.9192 2.83076C13.4389 2.76816 12.9518 2.73564 12.4599 2.73564C11.9956 2.73564 11.5357 2.76416 11.0821 2.82017C11.1847 2.12964 11.7814 1.59815 12.5 1.59815ZM2.38628 13.4021C2.59312 8.02393 7.03208 3.71221 12.46 3.71221C17.9309 3.71221 22.4052 8.02393 22.6137 13.4021H2.38628Z" fill="black"/>
</svg>
