<svg width="15" height="15" viewBox="0 0 15 15" fill="none" xmlns="http://www.w3.org/2000/svg">
<path d="M1.59559 11.0561C1.29007 11.0561 1.04237 11.3038 1.04237 11.6093C1.04237 11.9148 1.29007 12.1625 1.59559 12.1625H13.4044C13.7099 12.1625 13.9576 11.9148 13.9576 11.6093C13.9576 11.3038 13.7099 11.0561 13.4044 11.0561H12.1839V6.52274H13.4044C13.6476 6.52274 13.8623 6.36385 13.9334 6.13128C14.0046 5.89871 13.9154 5.64696 13.7138 5.51087L7.80936 1.52795C7.62238 1.40182 7.37756 1.40182 7.19058 1.52795L1.28623 5.51094C1.08464 5.64696 0.995461 5.89871 1.06657 6.13136C1.13767 6.36393 1.35239 6.52281 1.59559 6.52281H2.81613V11.0561H1.59559V11.0561ZM8.32363 6.52281V11.0561H6.67631V6.52281H8.32363ZM11.0775 11.0561H9.43014V6.52281H11.0775V11.0561ZM7.50001 2.65392L11.5951 5.41631H3.40497L7.50001 2.65392ZM3.92255 6.52281H5.56988V11.0561H3.92255V6.52281Z" fill="#F5F5F5"/>
<path d="M14.6312 12.8291H0.36881C0.165153 12.8291 0 12.9943 0 13.1979C0 13.4016 0.165153 13.5667 0.36881 13.5667H14.6312C14.8348 13.5667 15 13.4016 15 13.1979C15 12.9943 14.8349 12.8291 14.6312 12.8291Z" fill="#F5F5F5"/>
</svg>
