<svg width="12" height="15" viewBox="0 0 12 15" fill="none" xmlns="http://www.w3.org/2000/svg">
<path d="M6 0C2.6916 0 0 2.54509 0 5.67345C0 6.84261 0.304047 8.05931 0.903722 9.28975C1.37595 10.2587 2.03212 11.239 2.85395 12.2034C4.24527 13.8363 5.62067 14.8534 5.67855 14.8958C5.77313 14.9653 5.88656 15 6 15C6.11344 15 6.22687 14.9653 6.32144 14.8958C6.3793 14.8534 7.75469 13.8363 9.14605 12.2034C9.96788 11.239 10.6241 10.2587 11.0963 9.28975C11.696 8.05931 12 6.84261 12 5.67345C12 2.54509 9.3084 0 6 0ZM8.34462 11.5644C7.41648 12.6567 6.47722 13.4717 6.00003 13.8604C5.52284 13.4717 4.58359 12.6567 3.65545 11.5644C2.46599 10.1647 1.04811 8.00646 1.04811 5.67345C1.04808 3.09155 3.26951 0.991041 6 0.991041C8.73049 0.991041 10.9519 3.09155 10.9519 5.67345C10.9519 8.00646 9.53405 10.1647 8.34462 11.5644Z" fill="#A59E9E"/>
<path d="M5.99998 2.81384C4.43296 2.81384 3.15808 4.01934 3.15808 5.50112C3.15808 6.98289 4.43293 8.18836 5.99998 8.18836C7.56703 8.18836 8.84191 6.98289 8.84191 5.50112C8.84191 4.01934 7.56703 2.81384 5.99998 2.81384ZM5.99998 7.19728C5.01084 7.19728 4.20616 6.4364 4.20616 5.50108C4.20616 4.56577 5.01084 3.80485 5.99998 3.80485C6.98912 3.80485 7.79383 4.56577 7.79383 5.50108C7.79383 6.4364 6.98912 7.19728 5.99998 7.19728Z" fill="#A59E9E"/>
</svg>
