<svg width="17" height="16" viewBox="0 0 17 16" fill="none" xmlns="http://www.w3.org/2000/svg">
<path d="M15.8113 14.8596L11.2169 10.2619C12.1227 9.17567 12.6674 7.78751 12.6674 6.27136C12.6674 2.81243 9.82874 0 6.33699 0C2.84525 0 0 2.81571 0 6.27464C0 9.73356 2.83868 12.546 6.33043 12.546C7.81376 12.546 9.17896 12.0373 10.2619 11.1874L14.8727 15.7982C15.1418 16.0673 15.5422 16.0673 15.8113 15.7982C16.0804 15.5291 16.0804 15.1287 15.8113 14.8596ZM1.3455 6.27464C1.3455 3.55738 3.58363 1.34878 6.33043 1.34878C9.07722 1.34878 11.3154 3.55738 11.3154 6.27464C11.3154 8.9919 9.07722 11.2005 6.33043 11.2005C3.58363 11.2005 1.3455 8.98862 1.3455 6.27464Z" fill="#F5F5F5" fill-opacity="0.8"/>
</svg>
