<svg width="16" height="16" viewBox="0 0 16 16" fill="none" xmlns="http://www.w3.org/2000/svg">
<path d="M10.3368 8.80203C11.1974 8.23328 11.8518 7.40234 12.203 6.43242C12.5542 5.46249 12.5835 4.4052 12.2866 3.41731C11.9896 2.42941 11.3822 1.56351 10.5544 0.947961C9.72667 0.332414 8.72258 0 7.69102 0C6.65946 0 5.65536 0.332414 4.82759 0.947961C3.99981 1.56351 3.39243 2.42941 3.09549 3.41731C2.79854 4.4052 2.82785 5.46249 3.17906 6.43242C3.53026 7.40234 4.18468 8.23328 5.04528 8.80203C3.5714 9.34371 2.29891 10.324 1.3992 11.611C0.499486 12.898 0.0157654 14.4297 0.0131836 16H1.29282C1.29282 14.3031 1.96692 12.6757 3.16681 11.4758C4.36671 10.2759 5.99411 9.6018 7.69102 9.6018C9.38793 9.6018 11.0153 10.2759 12.2152 11.4758C13.4151 12.6757 14.0892 14.3031 14.0892 16H15.3602C15.3583 14.4308 14.8758 12.8997 13.9777 11.6129C13.0797 10.3261 11.809 9.34512 10.3368 8.80203ZM7.69102 8.32216C6.99502 8.32216 6.31466 8.11578 5.73596 7.7291C5.15726 7.34243 4.70622 6.79284 4.43988 6.14982C4.17353 5.50681 4.10385 4.79925 4.23963 4.11663C4.37541 3.43401 4.71056 2.80698 5.2027 2.31484C5.69485 1.8227 6.32187 1.48755 7.00449 1.35177C7.68711 1.21598 8.39467 1.28567 9.03768 1.55202C9.6807 1.81836 10.2303 2.2694 10.617 2.8481C11.0036 3.4268 11.21 4.10716 11.21 4.80316C11.2095 5.73628 10.8385 6.63102 10.1787 7.29084C9.51888 7.95066 8.62414 8.32159 7.69102 8.32216Z" fill="#F5F5F5" fill-opacity="0.8"/>
</svg>
