<svg width="18" height="15" viewBox="0 0 18 15" fill="none" xmlns="http://www.w3.org/2000/svg">
<path d="M17.1429 11.2665C17.1429 8.76437 15.693 6.53974 13.4124 5.4774C13.8529 4.88908 14.0946 4.1824 14.0946 3.44333C14.0946 1.54469 12.5136 0 10.5703 0C8.92891 0 7.51641 1.11095 7.14253 2.63608C6.95662 2.60634 6.76723 2.58688 6.57282 2.58688C4.62717 2.58688 3.04447 4.13157 3.04447 6.03021C3.04447 6.65586 3.21492 7.25289 3.53636 7.78334C1.43283 8.56599 0 10.565 0 12.7945V15H13.1454V12.7945C13.1454 12.6664 13.1384 12.5395 13.1291 12.4131H17.1429V11.2665ZM10.5703 0.669974C12.1356 0.669974 13.4089 1.91402 13.4089 3.44333C13.4089 4.1594 13.131 4.84016 12.6328 5.35309L12.6164 5.36912L12.8588 5.60594L12.6131 5.37238C12.069 5.91934 11.3434 6.22063 10.5704 6.22063C10.4098 6.22063 10.2498 6.20239 10.0908 6.17568C10.0928 6.1272 10.0969 6.0791 10.0969 6.03024C10.0969 4.55527 9.14111 3.29762 7.80428 2.80812C8.09911 1.57204 9.24185 0.669974 10.5703 0.669974ZM6.57289 3.25689C8.13783 3.25689 9.41118 4.50094 9.41118 6.03024C9.41118 6.66062 9.19957 7.25697 8.79947 7.75453C8.59622 8.0055 8.35505 8.21629 8.08696 8.38181C8.0693 8.39269 8.05015 8.40099 8.03229 8.41151C7.95969 8.45417 7.88653 8.49598 7.81037 8.53197C7.76873 8.55167 7.72482 8.56644 7.68223 8.58409C7.6277 8.60668 7.57421 8.63155 7.51825 8.65077C7.43305 8.68007 7.34551 8.7033 7.25734 8.72457C7.24236 8.72817 7.22805 8.73372 7.21301 8.73709C7.1114 8.75985 7.00805 8.77689 6.90341 8.7887C6.90125 8.78893 6.8992 8.78955 6.89704 8.78975C6.79021 8.80156 6.68202 8.80754 6.57285 8.80754C6.46338 8.80754 6.35484 8.80156 6.24773 8.78975C5.60503 8.71892 5.01212 8.43903 4.55715 7.99165C4.48145 7.91718 4.40957 7.83808 4.34195 7.75456C3.94185 7.25701 3.73024 6.66065 3.73024 6.03028C3.73024 4.50094 5.00558 3.25689 6.57289 3.25689ZM12.4597 14.3301H0.685703V12.7945C0.685703 10.7814 2.0203 8.98255 3.95759 8.34693C3.97699 8.36786 3.99875 8.38585 4.01856 8.40623C4.05931 8.44815 4.1012 8.48839 4.14378 8.52803C4.19452 8.57525 4.24623 8.6209 4.29947 8.66486C4.34407 8.70167 4.38913 8.73743 4.43538 8.77192C4.49088 8.81333 4.54768 8.85242 4.60541 8.89042C4.65311 8.92175 4.70079 8.95275 4.74992 8.9817C4.81009 9.01721 4.87176 9.04967 4.93395 9.08152C4.98392 9.1071 5.03354 9.13302 5.08473 9.15622C5.14995 9.18582 5.2168 9.21148 5.28383 9.23709C5.33478 9.25655 5.38506 9.27713 5.43698 9.29428C5.50861 9.31793 5.58191 9.33674 5.65521 9.35586C5.7049 9.36882 5.75378 9.38382 5.80417 9.39468C5.88673 9.41247 5.97097 9.42438 6.0552 9.43642C6.09817 9.44254 6.1403 9.45156 6.18365 9.45619C6.31201 9.46983 6.44175 9.47752 6.57278 9.47752C6.70354 9.47752 6.83304 9.46986 6.96115 9.45619C7.00398 9.45163 7.04559 9.44268 7.08804 9.43663C7.17258 9.42455 7.25709 9.4125 7.34 9.39464C7.38976 9.38393 7.43803 9.36906 7.48712 9.35623C7.56088 9.33698 7.63456 9.31799 7.70667 9.29415C7.75783 9.27724 7.80734 9.25689 7.85755 9.2377C7.92532 9.21181 7.99284 9.18582 8.05872 9.15588C8.10896 9.13306 8.15765 9.10754 8.20674 9.0824C8.2698 9.05008 8.33227 9.01715 8.39328 8.98108C8.44154 8.95257 8.48838 8.92209 8.53525 8.8913C8.59368 8.85286 8.65113 8.81326 8.70727 8.77128C8.75295 8.73715 8.79749 8.70177 8.84157 8.66534C8.89513 8.62111 8.94719 8.57515 8.99823 8.52759C9.04065 8.48805 9.08229 8.44798 9.12286 8.40623C9.14274 8.38575 9.16461 8.36765 9.18408 8.34663C11.1233 8.97928 12.4596 10.7781 12.4596 12.7945V14.3301H12.4597ZM16.4571 11.7431H13.0336C12.6637 9.95282 11.3732 8.43743 9.60542 7.7829C9.78464 7.48702 9.91707 7.17066 9.9982 6.83947C10.1879 6.87005 10.3788 6.89057 10.5703 6.89057C11.4495 6.89057 12.2762 6.57427 12.9275 6.00085C15.0773 6.91523 16.4572 8.95764 16.4572 11.2665V11.7431H16.4571Z" fill="#A59E9E"/>
</svg>
