<svg width="29" height="25" viewBox="0 0 29 25" fill="none" xmlns="http://www.w3.org/2000/svg">
<path d="M29 18.7775C29 14.6073 26.5474 10.8996 22.6894 9.12901C23.4344 8.14847 23.8434 6.97066 23.8434 5.73888C23.8434 2.57448 21.1688 0 17.8814 0C15.1047 0 12.7153 1.85159 12.0828 4.39346C11.7683 4.34391 11.4479 4.31147 11.119 4.31147C7.82763 4.31147 5.15023 6.88595 5.15023 10.0504C5.15023 11.0931 5.43857 12.0881 5.98234 12.9722C2.42387 14.2767 0 17.6084 0 21.3242V25H22.2377V21.3242C22.2377 21.1107 22.2258 20.8992 22.2101 20.6885H29V18.7775ZM17.8815 1.11662C20.5294 1.11662 22.6834 3.19003 22.6834 5.73888C22.6834 6.93233 22.2133 8.06693 21.3705 8.92182L21.3428 8.94853L21.7529 9.34323L21.3371 8.95397C20.4167 9.86556 19.1893 10.3677 17.8815 10.3677C17.6099 10.3677 17.3392 10.3373 17.0703 10.2928C17.0737 10.212 17.0806 10.1318 17.0806 10.0504C17.0806 7.59211 15.4637 5.49603 13.2022 4.6802C13.701 2.62007 15.6341 1.11662 17.8815 1.11662ZM11.1191 5.42815C13.7665 5.42815 15.9206 7.50156 15.9206 10.0504C15.9206 11.101 15.5626 12.095 14.8858 12.9242C14.5419 13.3425 14.134 13.6938 13.6804 13.9697C13.6506 13.9878 13.6182 14.0017 13.588 14.0192C13.4651 14.0903 13.3414 14.16 13.2125 14.22C13.1421 14.2528 13.0678 14.2774 12.9958 14.3068C12.9035 14.3445 12.813 14.3859 12.7184 14.418C12.5742 14.4668 12.4261 14.5055 12.277 14.5409C12.2517 14.547 12.2275 14.5562 12.202 14.5618C12.0301 14.5997 11.8553 14.6282 11.6783 14.6478C11.6746 14.6482 11.6711 14.6492 11.6675 14.6496C11.4868 14.6693 11.3037 14.6792 11.1191 14.6792C10.9339 14.6792 10.7503 14.6693 10.5691 14.6496C9.48184 14.5315 8.47884 14.065 7.70917 13.3194C7.58111 13.1953 7.45953 13.0635 7.34513 12.9243C6.6683 12.095 6.31033 11.1011 6.31033 10.0505C6.31033 7.50156 8.46777 5.42815 11.1191 5.42815ZM21.0776 23.8834H1.15998V21.3242C1.15998 17.969 3.41768 14.9709 6.69493 13.9116C6.72774 13.9464 6.76455 13.9764 6.79807 14.0104C6.86699 14.0802 6.93786 14.1473 7.0099 14.2134C7.09572 14.2921 7.1832 14.3682 7.27327 14.4414C7.34873 14.5028 7.42495 14.5624 7.50318 14.6199C7.59708 14.6889 7.69315 14.754 7.79082 14.8174C7.87152 14.8696 7.95216 14.9212 8.03528 14.9695C8.13707 15.0287 8.24139 15.0828 8.3466 15.1359C8.43113 15.1785 8.51507 15.2217 8.60166 15.2604C8.71199 15.3097 8.82509 15.3525 8.93849 15.3952C9.02467 15.4276 9.10973 15.4619 9.19756 15.4905C9.31873 15.5299 9.44273 15.5612 9.56672 15.5931C9.65078 15.6147 9.73349 15.6397 9.81872 15.6578C9.95839 15.6875 10.1009 15.7073 10.2434 15.7274C10.3161 15.7376 10.3873 15.7526 10.4607 15.7603C10.6778 15.783 10.8973 15.7959 11.119 15.7959C11.3402 15.7959 11.5592 15.7831 11.7759 15.7603C11.8484 15.7527 11.9188 15.7378 11.9906 15.7277C12.1336 15.7076 12.2766 15.6875 12.4168 15.6577C12.501 15.6399 12.5827 15.6151 12.6657 15.5937C12.7905 15.5616 12.9151 15.53 13.0371 15.4902C13.1237 15.4621 13.2074 15.4282 13.2924 15.3962C13.407 15.353 13.5212 15.3097 13.6327 15.2598C13.7177 15.2218 13.8 15.1792 13.8831 15.1373C13.9898 15.0835 14.0954 15.0286 14.1986 14.9685C14.2803 14.921 14.3595 14.8702 14.4388 14.8188C14.5376 14.7548 14.6348 14.6888 14.7298 14.6188C14.8071 14.5619 14.8824 14.503 14.957 14.4422C15.0476 14.3685 15.1357 14.2919 15.222 14.2126C15.2938 14.1468 15.3642 14.08 15.4328 14.0104C15.4665 13.9763 15.5035 13.9461 15.5364 13.911C18.817 14.9655 21.0775 17.9636 21.0775 21.3242V23.8834H21.0776ZM27.84 19.5719H22.0485C21.4227 16.588 19.2397 14.0624 16.2492 12.9715C16.5524 12.4784 16.7764 11.9511 16.9136 11.3991C17.2345 11.4501 17.5574 11.4843 17.8815 11.4843C19.3688 11.4843 20.7673 10.9571 21.869 10.0014C25.5057 11.5254 27.84 14.9294 27.84 18.7775V19.5719H27.84Z" fill="#1E212C"/>
</svg>
