<svg width="25" height="19" viewBox="0 0 25 19" fill="none" xmlns="http://www.w3.org/2000/svg">
<path d="M24.8666 5.70675C21.5688 2.4085 17.1765 0.592285 12.5 0.592285C7.82353 0.592285 3.43164 2.40805 0.133397 5.70675C-0.0446283 5.88477 -0.0446283 6.17253 0.133397 6.35055C0.311422 6.52858 0.599176 6.52858 0.777201 6.35055C3.90334 3.22396 8.06667 1.50244 12.5 1.50244C16.9333 1.50244 21.0966 3.22396 24.2228 6.3501C24.3116 6.43888 24.4281 6.4835 24.5447 6.4835C24.6612 6.4835 24.7778 6.43888 24.8666 6.3501C25.0446 6.17253 25.0446 5.88432 24.8666 5.70675Z" fill="black"/>
<path d="M2.80967 8.38252C2.63164 8.56054 2.63164 8.84829 2.80967 9.02632C2.89845 9.1151 3.01501 9.15972 3.13157 9.15972C3.24813 9.15972 3.36469 9.1151 3.45347 9.02632C8.44136 4.03798 16.5577 4.03798 21.546 9.02632C21.724 9.20434 22.0118 9.20434 22.1898 9.02632C22.3678 8.84829 22.3678 8.56054 22.1898 8.38252C16.8472 3.03994 8.15315 3.03903 2.80967 8.38252Z" fill="black"/>
<path d="M12.5 8.15869C9.84781 8.15869 7.35728 9.18905 5.48642 11.0595C5.3084 11.2375 5.3084 11.5252 5.48642 11.7033C5.66445 11.8813 5.9522 11.8813 6.13023 11.7033C7.82898 10.005 10.0909 9.06931 12.5 9.06931C14.909 9.06931 17.171 10.005 18.8697 11.7033C18.9585 11.792 19.0751 11.8367 19.1916 11.8367C19.3082 11.8367 19.4247 11.792 19.5135 11.7033C19.6916 11.5252 19.6916 11.2375 19.5135 11.0595C17.6431 9.18905 15.1521 8.15869 12.5 8.15869Z" fill="black"/>
<path d="M12.5 12.4421C10.8554 12.4421 9.51727 13.7803 9.51727 15.4253C9.51727 17.0703 10.8554 18.4085 12.5 18.4085C14.145 18.4085 15.4832 17.0703 15.4832 15.4253C15.4832 13.7803 14.145 12.4421 12.5 12.4421ZM12.5 17.4974C11.3572 17.4974 10.4279 16.5677 10.4279 15.4249C10.4279 14.282 11.3576 13.3523 12.5 13.3523C13.6424 13.3523 14.5725 14.282 14.5725 15.4249C14.5725 16.5677 13.6428 17.4974 12.5 17.4974Z" fill="black"/>
</svg>
